<?xml version="1.0" encoding="UTF-8"?>
<!DOCTYPE svg PUBLIC "-//W3C//DTD SVG 1.1//EN" "http://www.w3.org/Graphics/SVG/1.1/DTD/svg11.dtd">
<!-- Creator: CorelDRAW -->
<svg xmlns="http://www.w3.org/2000/svg" xml:space="preserve" width="12.111mm" height="12.111mm" version="1.1" style="shape-rendering:geometricPrecision; text-rendering:geometricPrecision; image-rendering:optimizeQuality; fill-rule:evenodd; clip-rule:evenodd"
viewBox="0 0 1211.1 1211.1"
 xmlns:xlink="http://www.w3.org/1999/xlink"
 xmlns:xodm="http://www.corel.com/coreldraw/odm/2003">
 <defs>
  <style type="text/css">
   <![CDATA[
    .fil0 {fill:#FEFEFE}
   ]]>
  </style>
 </defs>
 <g id="Capa_x0020_1">
  <metadata id="CorelCorpID_0Corel-Layer"/>
  <path class="fil0" d="M1.77 632.99c4.09,22.48 4.43,46.15 7.69,68.82 2.8,19.5 10.58,42.59 13.56,61.62 5.3,33.81 30.68,79.46 41.83,109.55 19.22,51.88 87.27,133.36 129.19,173.57 47.38,45.44 120.73,94.35 184.84,117.91 71.73,26.36 177.22,54.72 254.58,44.47 17.55,-2.32 57.12,-2.46 69.06,-7.13 11.15,-4.37 51.2,-7.15 62.54,-12.64 31.04,-15 74.04,-23.73 109.6,-41.78 60.83,-30.87 124.75,-75.23 172.7,-129.04 105.52,-118.4 173.62,-263.44 162.32,-441.89 -10.67,-168.55 -72.28,-302.76 -191.34,-414.18 -242.42,-226.85 -622.47,-214.74 -853.38,29.51 -25.38,26.86 -48.67,57.05 -65.8,85.58 -9.44,15.71 -20.12,30.16 -28.09,48.11 -5.15,11.57 -17.96,40.23 -24.2,50.98 -24.89,42.83 -53.78,208.74 -45.1,256.54zm525.83 6.71c4.39,0.2 4.77,0.72 8.12,2.28 2.33,1.07 5.89,2.01 5.89,-2.28l0 -137.26c0,-6.31 -40.44,-4.48 -45.9,-3.87 -271.04,30.41 -294.66,302.08 -181.92,435.46 92.77,109.74 302.93,111.6 389.87,-5.73 71.62,-96.67 62.05,-244.7 62.05,-361.08l0 -83.46c-0.08,-13.33 -0.22,-14.8 10.91,-6.24 28.39,16.89 48.66,27.69 71.4,35.62 42.09,14.67 63.26,12.59 102.05,18.79 6.44,1.04 10.8,1.5 10.8,-5.22l0 -129.79c0,-6.35 -14.38,-3.15 -20.32,-3.95 -3.07,-0.41 -7.12,-1.7 -9.79,-2.36 -51.94,-12.71 -80.01,-24.58 -119.07,-66.74 -33,-35.62 -45.98,-80.73 -45.98,-127.71 -10.36,-2.41 -117.57,-0.93 -137.26,-0.93 -5.1,0 -3.77,6.91 -3.74,12.13 0.82,153.53 -0.53,307.07 -0.32,460.61 0.08,60.83 8.11,112.2 -29.44,165.03 -63.88,89.91 -194.18,38.72 -205.59,-63.03 -5.98,-53.37 22.23,-108.26 81.51,-126.32 23.75,-7.25 33.24,-5.02 56.73,-3.95z"/>
 </g>
</svg>
